<svg width="1533" height="1707" viewBox="0 0 1533 1707" fill="none" xmlns="http://www.w3.org/2000/svg">
<path d="M1213.43 1655.57C1064.37 1655.57 944.793 1536.66 944.793 1391.51C944.793 1246.36 1064.37 1127.45 1213.43 1127.45C1362.49 1127.45 1482.07 1246.36 1482.07 1391.51C1482.07 1536.66 1362.49 1655.57 1213.43 1655.57Z" stroke="#FF00CC" stroke-width="101.858"/>
<mask id="path-2-inside-1_989_94" fill="white">
<ellipse cx="1213.43" cy="1391.51" rx="100.436" ry="98.9971" transform="rotate(-180 1213.43 1391.51)"/>
</mask>
<path d="M1113 1391.51L1214.85 1391.51C1214.85 1391.93 1214.75 1392.55 1214.49 1393.14C1214.27 1393.66 1214.04 1393.93 1213.92 1394.05C1213.8 1394.17 1213.68 1394.25 1213.53 1394.31C1213.33 1394.39 1213.23 1394.37 1213.43 1394.37L1213.43 1292.51L1213.43 1190.65C1103.1 1190.65 1011.14 1279.2 1011.14 1391.51L1113 1391.51ZM1213.43 1292.51L1213.43 1394.37C1213.63 1394.37 1213.54 1394.39 1213.33 1394.31C1213.19 1394.25 1213.07 1394.17 1212.95 1394.05C1212.83 1393.93 1212.59 1393.66 1212.37 1393.14C1212.12 1392.55 1212.01 1391.93 1212.01 1391.51L1313.87 1391.51L1415.73 1391.51C1415.73 1279.2 1323.77 1190.65 1213.43 1190.65L1213.43 1292.51ZM1313.87 1391.51L1212.01 1391.51C1212.01 1391.09 1212.12 1390.47 1212.37 1389.88C1212.59 1389.36 1212.83 1389.09 1212.95 1388.97C1213.07 1388.85 1213.19 1388.77 1213.33 1388.71C1213.54 1388.63 1213.63 1388.65 1213.43 1388.65L1213.43 1490.51L1213.43 1592.36C1323.77 1592.36 1415.73 1503.82 1415.73 1391.51L1313.87 1391.51ZM1213.43 1490.51L1213.43 1388.65C1213.23 1388.65 1213.33 1388.63 1213.53 1388.71C1213.68 1388.77 1213.8 1388.85 1213.92 1388.97C1214.04 1389.09 1214.27 1389.36 1214.49 1389.88C1214.75 1390.47 1214.85 1391.09 1214.85 1391.51L1113 1391.51L1011.14 1391.51C1011.14 1503.82 1103.1 1592.36 1213.43 1592.36L1213.43 1490.51Z" fill="#FF00CC" mask="url(#path-2-inside-1_989_94)"/>
<path d="M1213.43 761.553C1064.37 761.553 944.793 642.637 944.793 497.49C944.793 352.343 1064.37 233.429 1213.43 233.429C1362.49 233.429 1482.07 352.343 1482.07 497.49C1482.07 642.637 1362.49 761.553 1213.43 761.553Z" stroke="#00FF1E" stroke-width="101.858"/>
<mask id="path-5-inside-2_989_94" fill="white">
<ellipse cx="1213.43" cy="497.491" rx="100.436" ry="98.9971" transform="rotate(-180 1213.43 497.491)"/>
</mask>
<path d="M1113 497.491L1214.85 497.491C1214.85 497.911 1214.75 498.535 1214.49 499.123C1214.27 499.639 1214.04 499.913 1213.92 500.031C1213.8 500.148 1213.68 500.229 1213.53 500.288C1213.33 500.374 1213.23 500.352 1213.43 500.352L1213.43 398.494L1213.43 296.636C1103.1 296.636 1011.14 385.181 1011.14 497.491L1113 497.491ZM1213.43 398.494L1213.43 500.352C1213.63 500.352 1213.54 500.374 1213.33 500.288C1213.19 500.229 1213.07 500.148 1212.95 500.031C1212.83 499.913 1212.59 499.639 1212.37 499.123C1212.12 498.535 1212.01 497.911 1212.01 497.491L1313.87 497.491L1415.73 497.491C1415.73 385.181 1323.77 296.636 1213.43 296.636L1213.43 398.494ZM1313.87 497.491L1212.01 497.491C1212.01 497.07 1212.12 496.446 1212.37 495.858C1212.59 495.343 1212.83 495.068 1212.95 494.95C1213.07 494.833 1213.19 494.753 1213.33 494.693C1213.54 494.607 1213.63 494.63 1213.43 494.63L1213.43 596.488L1213.43 698.346C1323.77 698.346 1415.73 609.8 1415.73 497.491L1313.87 497.491ZM1213.43 596.488L1213.43 494.63C1213.23 494.63 1213.33 494.607 1213.53 494.693C1213.68 494.753 1213.8 494.833 1213.92 494.95C1214.04 495.068 1214.27 495.343 1214.49 495.858C1214.75 496.446 1214.85 497.07 1214.85 497.491L1113 497.491L1011.14 497.491C1011.14 609.8 1103.1 698.346 1213.43 698.346L1213.43 596.488Z" fill="#00FF1E" mask="url(#path-5-inside-2_989_94)"/>
<path d="M319.568 761.553C170.507 761.553 50.9291 642.637 50.9291 497.49C50.9293 352.343 170.508 233.429 319.568 233.429C468.628 233.429 588.207 352.343 588.207 497.49C588.207 642.637 468.628 761.553 319.568 761.553Z" stroke="#00FF1E" stroke-width="101.858"/>
<mask id="path-8-inside-3_989_94" fill="white">
<ellipse cx="319.568" cy="497.491" rx="100.436" ry="98.9971" transform="rotate(-180 319.568 497.491)"/>
</mask>
<path d="M219.133 497.491L320.991 497.491C320.991 497.911 320.882 498.535 320.629 499.123C320.408 499.639 320.172 499.913 320.053 500.031C319.934 500.148 319.812 500.229 319.67 500.288C319.463 500.374 319.367 500.352 319.568 500.352L319.568 398.494L319.568 296.636C209.235 296.636 117.275 385.181 117.275 497.491L219.133 497.491ZM319.568 398.494L319.568 500.352C319.77 500.352 319.674 500.374 319.467 500.288C319.324 500.229 319.203 500.148 319.084 500.031C318.964 499.913 318.729 499.639 318.507 499.123C318.255 498.535 318.146 497.911 318.146 497.491L420.004 497.491L521.862 497.491C521.862 385.181 429.902 296.636 319.568 296.636L319.568 398.494ZM420.004 497.491L318.146 497.491C318.146 497.07 318.255 496.446 318.507 495.858C318.729 495.343 318.964 495.068 319.084 494.95C319.203 494.833 319.324 494.753 319.467 494.693C319.674 494.607 319.77 494.63 319.568 494.63L319.568 596.488L319.568 698.346C429.902 698.346 521.862 609.8 521.862 497.491L420.004 497.491ZM319.568 596.488L319.568 494.63C319.367 494.63 319.463 494.607 319.67 494.693C319.812 494.753 319.934 494.833 320.053 494.95C320.172 495.068 320.408 495.343 320.629 495.858C320.882 496.446 320.991 497.07 320.991 497.491L219.133 497.491L117.275 497.491C117.275 609.8 209.235 698.346 319.568 698.346L319.568 596.488Z" fill="#00FF1E" mask="url(#path-8-inside-3_989_94)"/>
<path d="M319.568 1655.57C170.507 1655.57 50.9291 1536.66 50.9291 1391.51C50.9293 1246.36 170.508 1127.45 319.568 1127.45C468.628 1127.45 588.207 1246.36 588.207 1391.51C588.207 1536.66 468.628 1655.57 319.568 1655.57Z" stroke="#FF00CC" stroke-width="101.858"/>
<mask id="path-11-inside-4_989_94" fill="white">
<ellipse cx="319.568" cy="1391.51" rx="100.436" ry="98.9971" transform="rotate(-180 319.568 1391.51)"/>
</mask>
<path d="M219.133 1391.51L320.991 1391.51C320.991 1391.93 320.882 1392.55 320.629 1393.14C320.408 1393.66 320.172 1393.93 320.053 1394.05C319.934 1394.17 319.812 1394.25 319.67 1394.31C319.463 1394.39 319.367 1394.37 319.568 1394.37L319.568 1292.51L319.568 1190.65C209.235 1190.65 117.275 1279.2 117.275 1391.51L219.133 1391.51ZM319.568 1292.51L319.568 1394.37C319.77 1394.37 319.674 1394.39 319.467 1394.31C319.324 1394.25 319.203 1394.17 319.084 1394.05C318.964 1393.93 318.729 1393.66 318.507 1393.14C318.255 1392.55 318.146 1391.93 318.146 1391.51L420.004 1391.51L521.862 1391.51C521.862 1279.2 429.902 1190.65 319.568 1190.65L319.568 1292.51ZM420.004 1391.51L318.146 1391.51C318.146 1391.09 318.255 1390.46 318.507 1389.88C318.729 1389.36 318.964 1389.09 319.084 1388.97C319.203 1388.85 319.324 1388.77 319.467 1388.71C319.674 1388.63 319.77 1388.65 319.568 1388.65L319.568 1490.51L319.568 1592.36C429.902 1592.36 521.862 1503.82 521.862 1391.51L420.004 1391.51ZM319.568 1490.51L319.568 1388.65C319.367 1388.65 319.463 1388.63 319.67 1388.71C319.812 1388.77 319.934 1388.85 320.053 1388.97C320.172 1389.09 320.408 1389.36 320.629 1389.88C320.882 1390.46 320.991 1391.09 320.991 1391.51L219.133 1391.51L117.275 1391.51C117.275 1503.82 209.235 1592.36 319.568 1592.36L319.568 1490.51Z" fill="#FF00CC" mask="url(#path-11-inside-4_989_94)"/>
<path d="M382.095 555.394L770.36 943.727L1158.63 555.394" stroke="#00FF1E" stroke-width="101.858"/>
<path d="M767.334 0L631.657 235L903.011 235L767.334 0ZM767.334 211.5L743.834 211.5L743.834 930.373L767.334 930.373L790.834 930.373L790.834 211.5L767.334 211.5Z" fill="#00FF1E"/>
<path d="M1155.54 1328.97L770.36 943.728L385.18 1328.97" stroke="#FF00CC" stroke-width="101.858"/>
</svg>
