<svg width="22" height="21" viewBox="0 0 22 21" fill="none" xmlns="http://www.w3.org/2000/svg">
<g clip-path="url(#clip0_45_229)">
<path d="M4.8125 7.875C4.13263 7.875 3.46802 7.68256 2.90273 7.32201C2.33743 6.96146 1.89684 6.449 1.63667 5.84943C1.37649 5.24986 1.30842 4.59011 1.44105 3.95361C1.57369 3.31711 1.90108 2.73245 2.38182 2.27356C2.86257 1.81467 3.47507 1.50216 4.14188 1.37555C4.80869 1.24894 5.49985 1.31392 6.12798 1.56227C6.7561 1.81062 7.29296 2.23119 7.67068 2.77079C8.0484 3.31039 8.25 3.94478 8.25 4.59375H6.875C6.875 4.20437 6.75404 3.82373 6.52741 3.49997C6.30078 3.17621 5.97866 2.92387 5.60179 2.77486C5.22491 2.62585 4.81021 2.58687 4.41013 2.66283C4.01004 2.7388 3.64254 2.9263 3.35409 3.20164C3.06565 3.47697 2.86921 3.82777 2.78963 4.20967C2.71005 4.59157 2.75089 4.98742 2.907 5.34716C3.06311 5.7069 3.32746 6.01438 3.66664 6.23071C4.00581 6.44704 4.40458 6.5625 4.8125 6.5625V7.875Z" fill="black"/>
<path d="M17.1875 7.875V6.5625C17.5954 6.5625 17.9942 6.44704 18.3334 6.23071C18.6725 6.01438 18.9369 5.7069 19.093 5.34716C19.2491 4.98742 19.29 4.59157 19.2104 4.20967C19.1308 3.82777 18.9344 3.47697 18.6459 3.20164C18.3575 2.9263 17.99 2.7388 17.5899 2.66283C17.1898 2.58687 16.7751 2.62585 16.3982 2.77486C16.0213 2.92387 15.6992 3.17621 15.4726 3.49997C15.246 3.82373 15.125 4.20437 15.125 4.59375H13.75C13.75 3.94478 13.9516 3.31039 14.3293 2.77079C14.707 2.23119 15.2439 1.81062 15.872 1.56227C16.5001 1.31392 17.1913 1.24894 17.8581 1.37555C18.5249 1.50216 19.1374 1.81467 19.6182 2.27356C20.0989 2.73245 20.4263 3.31711 20.5589 3.95361C20.6916 4.59011 20.6235 5.24986 20.3633 5.84943C20.1032 6.449 19.6626 6.96146 19.0973 7.32201C18.532 7.68256 17.8674 7.875 17.1875 7.875Z" fill="black"/>
<path d="M4.8125 19.6875C3.90082 19.6875 3.02648 19.3418 2.38182 18.7264C1.73716 18.1111 1.375 17.2765 1.375 16.4062C1.375 15.536 1.73716 14.7014 2.38182 14.0861C3.02648 13.4707 3.90082 13.125 4.8125 13.125V14.4375C4.40458 14.4375 4.00581 14.553 3.66664 14.7693C3.32746 14.9856 3.0631 15.2931 2.907 15.6528C2.75089 16.0126 2.71005 16.4084 2.78963 16.7903C2.86921 17.1722 3.06565 17.523 3.35409 17.7984C3.64254 18.0737 4.01004 18.2612 4.41013 18.3372C4.81021 18.4131 5.22491 18.3741 5.60178 18.2251C5.97866 18.0761 6.30078 17.8238 6.52741 17.5C6.75404 17.1763 6.875 16.7956 6.875 16.4062H8.25C8.249 17.2762 7.88651 18.1102 7.24207 18.7254C6.59763 19.3405 5.72387 19.6865 4.8125 19.6875Z" fill="black"/>
<path d="M17.1875 19.6875C16.2761 19.6865 15.4024 19.3405 14.7579 18.7254C14.1135 18.1102 13.751 17.2762 13.75 16.4062H15.125C15.125 16.7956 15.246 17.1763 15.4726 17.5C15.6992 17.8238 16.0213 18.0761 16.3982 18.2251C16.7751 18.3741 17.1898 18.4131 17.5899 18.3372C17.99 18.2612 18.3575 18.0737 18.6459 17.7984C18.9344 17.523 19.1308 17.1722 19.2104 16.7903C19.29 16.4084 19.2491 16.0126 19.093 15.6528C18.9369 15.2931 18.6725 14.9856 18.3334 14.7693C17.9942 14.553 17.5954 14.4375 17.1875 14.4375V13.125C18.0992 13.125 18.9735 13.4707 19.6182 14.0861C20.2628 14.7014 20.625 15.536 20.625 16.4062C20.625 17.2765 20.2628 18.1111 19.6182 18.7264C18.9735 19.3418 18.0992 19.6875 17.1875 19.6875Z" fill="black"/>
<path d="M13.75 12.197V8.80301L17.6736 5.05773C17.7393 4.99719 17.7916 4.92478 17.8277 4.84471C17.8637 4.76465 17.8827 4.67853 17.8834 4.5914C17.8842 4.50426 17.8668 4.41784 17.8323 4.33719C17.7977 4.25654 17.7467 4.18327 17.6821 4.12165C17.6176 4.06004 17.5408 4.01131 17.4563 3.97831C17.3718 3.94532 17.2813 3.92871 17.19 3.92947C17.0987 3.93023 17.0085 3.94833 16.9246 3.98272C16.8407 4.01712 16.7649 4.06711 16.7015 4.12979L13.6081 7.08291C13.4349 6.55187 13.0885 6.08758 12.6193 5.75787C12.15 5.42817 11.5827 5.25032 11 5.25032C10.4174 5.25032 9.85001 5.42817 9.38079 5.75787C8.91157 6.08758 8.5651 6.55187 8.39199 7.08291L5.29859 4.12979C5.23478 4.06882 5.15901 4.02046 5.0756 3.98746C4.9922 3.95447 4.90281 3.93748 4.81252 3.93748C4.72224 3.93748 4.63285 3.95447 4.54944 3.98746C4.46604 4.02046 4.39027 4.06882 4.32646 4.12979C4.26259 4.1907 4.21193 4.26303 4.17736 4.34264C4.14279 4.42225 4.125 4.50758 4.125 4.59376C4.125 4.67994 4.14279 4.76527 4.17736 4.84488C4.21193 4.92449 4.26259 4.99682 4.32646 5.05773L8.25002 8.80301V12.197L4.32646 15.9423C4.26259 16.0032 4.21193 16.0755 4.17736 16.1551C4.14279 16.2347 4.125 16.3201 4.125 16.4063C4.125 16.4924 4.14279 16.5778 4.17736 16.6574C4.21193 16.737 4.26259 16.8093 4.32646 16.8702C4.39027 16.9312 4.46604 16.9796 4.54944 17.0125C4.63285 17.0455 4.72224 17.0625 4.81252 17.0625C4.90281 17.0625 4.9922 17.0455 5.0756 17.0125C5.15901 16.9796 5.23478 16.9312 5.29859 16.8702L8.39234 13.9171C8.56544 14.4481 8.91192 14.9124 9.38113 15.2421C9.85035 15.5718 10.4177 15.7497 11.0004 15.7497C11.583 15.7497 12.1504 15.5718 12.6196 15.2421C13.0888 14.9124 13.4353 14.4481 13.6084 13.9171L16.7018 16.8702C16.8315 16.9898 17.0051 17.0559 17.1854 17.0544C17.3657 17.0529 17.5381 16.9839 17.6656 16.8622C17.793 16.7406 17.8653 16.576 17.8669 16.4039C17.8685 16.2318 17.7992 16.0661 17.6739 15.9423L13.75 12.197ZM12.375 13.125C12.375 13.4731 12.2302 13.8069 11.9723 14.0531C11.7144 14.2992 11.3647 14.4375 11 14.4375C10.6354 14.4375 10.2856 14.2992 10.0278 14.0531C9.76989 13.8069 9.62502 13.4731 9.62502 13.125V7.87501C9.62502 7.52691 9.76989 7.19307 10.0278 6.94693C10.2856 6.70079 10.6354 6.56251 11 6.56251C11.3647 6.56251 11.7144 6.70079 11.9723 6.94693C12.2302 7.19307 12.375 7.52691 12.375 7.87501V13.125Z" fill="black"/>
</g>
<defs>
<clipPath id="clip0_45_229">
<rect width="22" height="21" fill="white"/>
</clipPath>
</defs>
</svg>
