<?xml version="1.0"?>
<svg width="22" height="21" xmlns="http://www.w3.org/2000/svg" xmlns:svg="http://www.w3.org/2000/svg">
 <defs>
  <clipPath id="clip0_45_229">
   <rect fill="white" height="21" id="svg_1" width="22"/>
  </clipPath>
 </defs>
 <g class="layer">
  <title>Layer 1</title>
  <g clip-path="url(#clip0_45_229)" id="svg_2">
   <path d="m4.81,7.88c-0.68,0 -1.34,-0.2 -1.91,-0.56c-0.56,-0.36 -1,-0.87 -1.26,-1.47c-0.26,-0.6 -0.33,-1.26 -0.2,-1.9c0.13,-0.63 0.46,-1.22 0.94,-1.68c0.48,-0.46 1.1,-0.77 1.76,-0.89c0.67,-0.13 1.36,-0.07 1.99,0.18c0.63,0.25 1.16,0.67 1.54,1.21c0.38,0.54 0.58,1.17 0.58,1.82l-1.37,0c0,-0.39 -0.13,-0.77 -0.35,-1.09c-0.23,-0.32 -0.55,-0.58 -0.93,-0.73c-0.38,-0.14 -0.79,-0.18 -1.19,-0.11c-0.4,0.08 -0.77,0.27 -1.06,0.54c-0.28,0.28 -0.48,0.63 -0.56,1.01c-0.08,0.38 -0.04,0.78 0.12,1.14c0.15,0.36 0.42,0.66 0.76,0.88c0.34,0.22 0.73,0.33 1.14,0.33l0,1.32z" fill="#ffffff" id="svg_3"/>
   <path d="m17.19,7.88l0,-1.32c0.41,0 0.8,-0.11 1.14,-0.33c0.34,-0.22 0.61,-0.52 0.76,-0.88c0.16,-0.36 0.2,-0.76 0.12,-1.14c-0.08,-0.38 -0.28,-0.73 -0.56,-1.01c-0.29,-0.27 -0.66,-0.46 -1.06,-0.54c-0.4,-0.07 -0.81,-0.03 -1.19,0.11c-0.38,0.15 -0.7,0.41 -0.93,0.73c-0.22,0.32 -0.34,0.7 -0.34,1.09l-1.38,0c0,-0.65 0.2,-1.28 0.58,-1.82c0.38,-0.54 0.91,-0.96 1.54,-1.21c0.63,-0.25 1.32,-0.31 1.99,-0.18c0.66,0.12 1.28,0.43 1.76,0.89c0.48,0.46 0.81,1.05 0.94,1.68c0.13,0.64 0.06,1.3 -0.2,1.9c-0.26,0.6 -0.7,1.11 -1.26,1.47c-0.57,0.36 -1.23,0.56 -1.91,0.56z" fill="#ffffff" id="svg_4"/>
   <path d="m4.81,19.69c-0.91,0 -1.78,-0.35 -2.43,-0.96c-0.64,-0.62 -1,-1.45 -1,-2.32c0,-0.87 0.36,-1.71 1,-2.32c0.65,-0.62 1.52,-0.96 2.43,-0.96l0,1.31c-0.41,0 -0.8,0.11 -1.14,0.33c-0.34,0.22 -0.61,0.52 -0.76,0.88c-0.16,0.36 -0.2,0.76 -0.12,1.14c0.08,0.38 0.28,0.73 0.56,1.01c0.29,0.27 0.66,0.46 1.06,0.54c0.4,0.07 0.81,0.03 1.19,-0.11c0.38,-0.15 0.7,-0.41 0.93,-0.73c0.22,-0.32 0.35,-0.7 0.35,-1.09l1.37,0c0,0.87 -0.36,1.7 -1.01,2.32c-0.64,0.61 -1.52,0.96 -2.43,0.96z" fill="#ffffff" id="svg_5"/>
   <path d="m17.19,19.69c-0.91,0 -1.79,-0.35 -2.43,-0.96c-0.65,-0.62 -1.01,-1.45 -1.01,-2.32l1.38,0c0,0.39 0.12,0.77 0.34,1.09c0.23,0.32 0.55,0.58 0.93,0.73c0.38,0.14 0.79,0.18 1.19,0.11c0.4,-0.08 0.77,-0.27 1.06,-0.54c0.28,-0.28 0.48,-0.63 0.56,-1.01c0.08,-0.38 0.04,-0.78 -0.12,-1.14c-0.15,-0.36 -0.42,-0.66 -0.76,-0.88c-0.34,-0.22 -0.73,-0.33 -1.14,-0.33l0,-1.31c0.91,0 1.78,0.34 2.43,0.96c0.64,0.61 1.01,1.45 1.01,2.32c0,0.87 -0.37,1.7 -1.01,2.32c-0.65,0.61 -1.52,0.96 -2.43,0.96z" fill="#ffffff" id="svg_6"/>
   <path d="m13.75,12.2l0,-3.4l3.92,-3.74c0.07,-0.06 0.12,-0.14 0.16,-0.22c0.03,-0.08 0.05,-0.16 0.05,-0.25c0,-0.09 -0.01,-0.17 -0.05,-0.25c-0.03,-0.08 -0.08,-0.16 -0.15,-0.22c-0.06,-0.06 -0.14,-0.11 -0.22,-0.14c-0.09,-0.03 -0.18,-0.05 -0.27,-0.05c-0.09,0 -0.18,0.02 -0.27,0.05c-0.08,0.04 -0.16,0.09 -0.22,0.15l-3.09,2.95c-0.18,-0.53 -0.52,-0.99 -0.99,-1.32c-0.47,-0.33 -1.04,-0.51 -1.62,-0.51c-0.58,0 -1.15,0.18 -1.62,0.51c-0.47,0.33 -0.81,0.79 -0.99,1.32l-3.09,-2.95c-0.07,-0.06 -0.14,-0.11 -0.22,-0.14c-0.09,-0.04 -0.18,-0.05 -0.27,-0.05c-0.09,0 -0.18,0.01 -0.26,0.05c-0.08,0.03 -0.16,0.08 -0.22,0.14c-0.07,0.06 -0.12,0.13 -0.15,0.21c-0.04,0.08 -0.05,0.17 -0.05,0.25c0,0.09 0.01,0.18 0.05,0.25c0.03,0.08 0.08,0.16 0.15,0.22l3.92,3.74l0,3.4l-3.92,3.74c-0.07,0.06 -0.12,0.14 -0.15,0.22c-0.04,0.07 -0.05,0.16 -0.05,0.25c0,0.08 0.01,0.17 0.05,0.25c0.03,0.08 0.08,0.15 0.15,0.21c0.06,0.06 0.14,0.11 0.22,0.14c0.08,0.04 0.17,0.05 0.26,0.05c0.09,0 0.18,-0.01 0.27,-0.05c0.08,-0.03 0.15,-0.08 0.22,-0.14l3.09,-2.95c0.18,0.53 0.52,0.99 0.99,1.32c0.47,0.33 1.04,0.51 1.62,0.51c0.58,0 1.15,-0.18 1.62,-0.51c0.47,-0.33 0.82,-0.79 0.99,-1.32l3.09,2.95c0.13,0.12 0.31,0.19 0.49,0.18c0.18,0 0.35,-0.07 0.48,-0.19c0.12,-0.12 0.2,-0.28 0.2,-0.46c0,-0.17 -0.07,-0.33 -0.2,-0.46l-3.92,-3.74zm-1.37,0.93c0,0.34 -0.15,0.68 -0.41,0.92c-0.26,0.25 -0.61,0.39 -0.97,0.39c-0.36,0 -0.71,-0.14 -0.97,-0.39c-0.26,-0.24 -0.4,-0.58 -0.4,-0.92l0,-5.25c0,-0.35 0.14,-0.69 0.4,-0.93c0.26,-0.25 0.61,-0.39 0.97,-0.39c0.36,0 0.71,0.14 0.97,0.39c0.26,0.24 0.41,0.58 0.41,0.93l0,5.25z" fill="#ffffff" id="svg_7"/>
  </g>
 </g>
</svg>