<?xml version="1.0"?>
<svg width="25" height="25" xmlns="http://www.w3.org/2000/svg" xmlns:svg="http://www.w3.org/2000/svg">
 <g class="layer">
  <title>Layer 1</title>
  <path d="m5.67,8.1c0.18,-0.18 0.42,-0.29 0.69,-0.29c0.4,0 0.75,0.24 0.9,0.59l0,0.01c0.2,0.47 0.47,0.87 0.78,1.23l0,-0.01c0,-0.09 -0.01,-0.2 -0.01,-0.32c0,-1.42 0.32,-2.77 0.89,-3.98l-0.03,0.06c1,-2.08 2.66,-3.7 4.72,-4.61l0.06,-0.03c0.11,-0.05 0.24,-0.08 0.38,-0.08c0.54,0 0.98,0.44 0.98,0.98c0,0.06 0,0.12 -0.02,0.17l0.01,0c-0.01,0.03 -0.01,0.07 -0.01,0.11c0,1.57 0.7,2.97 1.8,3.92l0.01,0.01c0.41,0.41 0.84,0.8 1.27,1.19c1.03,0.85 1.92,1.8 2.68,2.86l0.03,0.04c0.85,1.39 1.36,3.08 1.36,4.88c0,0.89 -0.12,1.75 -0.35,2.56l0.02,-0.07c-0.6,2.46 -2.11,4.49 -4.14,5.75l-0.04,0.03c-1.48,0.94 -3.28,1.5 -5.21,1.51l0,0c-0.01,0 -0.01,0 -0.01,0c-0.41,0 -0.82,-0.02 -1.22,-0.08l0.05,0.01c-3.69,-0.54 -6.68,-3.05 -7.9,-6.42l-0.02,-0.06c-0.31,-0.92 -0.49,-1.97 -0.49,-3.06c0,-2.69 1.08,-5.13 2.82,-6.91l0,0l0,0.01zm-0.48,9.33c0.99,2.74 3.37,4.74 6.27,5.17l0.05,0c0.27,0.04 0.59,0.06 0.92,0.06c1.55,0 3,-0.46 4.22,-1.24l-0.03,0.02c1.64,-1.03 2.84,-2.64 3.3,-4.54l0.01,-0.05c0.18,-0.6 0.28,-1.3 0.28,-2.02c0,-1.4 -0.39,-2.72 -1.07,-3.84l0.02,0.03c-0.69,-0.96 -1.47,-1.78 -2.35,-2.5l-0.02,-0.02c-0.46,-0.41 -0.93,-0.83 -1.36,-1.27c-1.1,-1.04 -1.91,-2.38 -2.29,-3.89l-0.01,-0.06c-1.92,1.35 -3.15,3.54 -3.15,6.03c0,0.77 0.12,1.51 0.33,2.2l-0.01,-0.05c0.03,0.09 0.04,0.18 0.04,0.29c0,0.54 -0.43,0.97 -0.97,0.97c-0.14,0 -0.26,-0.02 -0.38,-0.07l0.01,0c-1.14,-0.47 -2.08,-1.21 -2.78,-2.15l-0.01,-0.02c-0.88,1.26 -1.41,2.82 -1.41,4.51c0,0.87 0.14,1.71 0.41,2.5l-0.02,-0.06l0,0z" fill="#ffffff" id="svg_1"/>
 </g>
</svg>