<svg width="25" height="25" viewBox="0 0 25 25" fill="none" xmlns="http://www.w3.org/2000/svg">
<path d="M5.67185 8.0953C5.84841 7.91952 6.09216 7.81093 6.36091 7.81093C6.76326 7.81093 7.10857 8.05389 7.25779 8.40155L7.26013 8.4078C7.46482 8.87811 7.72654 9.2828 8.04372 9.63671L8.03982 9.6328C8.03669 9.53749 8.03435 9.42577 8.03435 9.31405C8.03435 7.89061 8.35076 6.54061 8.91716 5.33124L8.89294 5.38905C9.88826 3.31249 11.5547 1.69061 13.6054 0.775769L13.6656 0.75155C13.7797 0.700769 13.9133 0.671082 14.0531 0.671082C14.5929 0.671082 15.0304 1.10858 15.0304 1.64843C15.0304 1.7078 15.025 1.76561 15.0148 1.82186L15.0156 1.81561C15.0148 1.84999 15.014 1.89139 15.014 1.93202C15.014 3.49999 15.7125 4.90389 16.814 5.85155L16.8211 5.85702C17.2281 6.26874 17.6609 6.6578 18.0945 7.04686C19.1195 7.8953 20.0094 8.85077 20.7664 9.90858L20.7976 9.95389C21.6547 11.3437 22.1625 13.0281 22.1625 14.8312C22.1625 15.718 22.0398 16.5758 21.8101 17.389L21.8258 17.3226C21.2265 19.7766 19.7195 21.8055 17.689 23.0734L17.65 23.0961C16.1719 24.0406 14.3711 24.6047 12.439 24.6141H12.4367C12.4344 24.6141 12.432 24.6141 12.4297 24.6141C12.0156 24.6141 11.6086 24.5867 11.2086 24.5344L11.2554 24.5391C7.56794 24.0008 4.57732 21.4867 3.36169 18.1242L3.33982 18.0555C3.03122 17.1422 2.8531 16.0898 2.8531 14.9961C2.8531 12.3078 3.92888 9.87108 5.67263 8.09218L5.67107 8.09374L5.67185 8.0953ZM5.18982 17.4289C6.17654 20.1672 8.56326 22.1734 11.4633 22.5976L11.5062 22.6031C11.7828 22.6375 12.1031 22.6578 12.4273 22.6578C13.9812 22.6578 15.4297 22.2039 16.6468 21.4219L16.6156 21.4406C18.2586 20.4141 19.4554 18.8031 19.9211 16.9047L19.9312 16.8539C20.1086 16.2484 20.2101 15.5523 20.2101 14.8328C20.2101 13.425 19.8195 12.1086 19.1414 10.9851L19.1601 11.0187C18.4664 10.0648 17.6859 9.23749 16.8125 8.51874L16.789 8.49999C16.3265 8.08514 15.8648 7.66952 15.4312 7.22889C14.3289 6.18983 13.5211 4.84921 13.139 3.33905L13.1273 3.28358C11.2133 4.62655 9.9781 6.82343 9.9781 9.30858C9.9781 10.0766 10.0961 10.8164 10.3148 11.5125L10.3008 11.4601C10.3281 11.5453 10.3429 11.6437 10.3429 11.7453C10.3429 12.2851 9.90544 12.7219 9.36638 12.7219C9.23435 12.7219 9.10935 12.6961 8.99451 12.6484L9.00076 12.6508C7.86404 12.1805 6.92107 11.4359 6.22419 10.4984L6.21169 10.4812C5.32966 11.7383 4.80154 13.3 4.80154 14.9851C4.80154 15.8586 4.94372 16.6992 5.20544 17.4851L5.18904 17.4297L5.18982 17.4289Z" fill="black"/>
</svg>
