<svg width="32" height="84" viewBox="0 0 32 84" fill="none" xmlns="http://www.w3.org/2000/svg">
<path d="M0.564636 15.8652C0.564636 22.8965 5.25213 28.8047 11.7463 30.6602V63.7168C11.7463 76.5586 14.0412 83.6875 15.8478 83.6875C17.6056 83.6875 19.9006 76.6074 19.9006 63.7168V30.6602C26.3947 28.8535 31.131 22.8965 31.131 15.8652C31.131 7.418 24.3439 0.533203 15.8478 0.533203C7.35174 0.533203 0.564636 7.418 0.564636 15.8652Z" fill="black"/>
<path d="M11.551 16.793C8.76784 16.793 6.32634 14.3516 6.32634 11.5195C6.32634 8.68749 8.76784 6.29489 11.551 6.29489C14.4318 6.29489 16.7756 8.68749 16.7756 11.5195C16.7756 14.3516 14.4318 16.793 11.551 16.793Z" fill="black"/>
</svg>
