<?xml version="1.0" standalone="no"?>
<!DOCTYPE svg PUBLIC "-//W3C//DTD SVG 20010904//EN"
 "http://www.w3.org/TR/2001/REC-SVG-20010904/DTD/svg10.dtd">
<svg version="1.0" xmlns="http://www.w3.org/2000/svg"
 width="260.000000pt" height="264.000000pt" viewBox="0 0 260.000000 264.000000"
 preserveAspectRatio="xMidYMid meet">

<g transform="translate(0.000000,264.000000) scale(0.100000,-0.100000)"
fill="#000000" stroke="none">
<path d="M1952 2583 l-123 -46 -92 -109 -92 -108 -11 -82 c-8 -59 -9 -127 -2
-231 6 -81 8 -153 5 -160 -8 -22 -288 -50 -449 -46 l-138 4 -52 52 -52 52 29
73 c26 64 29 84 26 158 l-2 85 -85 137 -85 137 -107 59 -107 59 -105 -8 c-58
-4 -127 -7 -155 -8 -48 -1 -55 -5 -165 -95 l-115 -95 -36 -155 -36 -155 60
-155 59 -154 152 -68 c145 -65 154 -68 222 -65 38 1 97 6 129 10 32 5 66 6 74
4 9 -2 36 -38 60 -79 43 -75 43 -75 39 -157 -4 -60 1 -113 19 -201 12 -65 23
-124 23 -131 0 -9 -54 -87 -106 -154 -2 -2 -19 7 -38 19 -33 20 -46 21 -173
18 -137 -4 -139 -4 -218 -43 -44 -21 -85 -39 -91 -41 -38 -7 -72 -42 -139
-139 l-75 -109 0 -144 0 -145 76 -119 c42 -65 80 -115 85 -112 5 3 6 -2 3 -10
-6 -15 16 -31 51 -37 11 -2 22 -7 25 -10 3 -3 43 -21 90 -39 90 -36 89 -36
251 -19 l106 11 105 94 105 94 47 118 c25 64 46 125 46 136 0 10 -16 70 -36
133 -19 62 -34 118 -32 123 2 5 32 34 68 65 l65 55 176 0 c97 0 209 -3 250 -6
72 -6 76 -8 134 -60 l59 -53 -23 -48 c-18 -35 -27 -80 -36 -168 l-13 -120 42
-72 c22 -39 44 -69 48 -67 5 3 8 -2 8 -11 0 -9 14 -41 32 -70 26 -44 42 -58
97 -85 36 -17 70 -31 75 -30 5 1 12 -3 15 -8 3 -5 23 -18 45 -29 38 -19 39
-19 180 2 141 21 141 21 233 79 l91 58 50 107 c42 90 52 122 64 214 l14 108
-40 105 -41 105 -100 79 c-96 77 -125 95 -109 67 5 -7 1 -7 -10 2 -9 8 -57 22
-106 32 -89 17 -90 17 -191 -7 -124 -30 -123 -30 -139 1 -7 13 -17 22 -22 19
-5 -3 -7 -2 -6 3 2 5 -12 32 -30 60 l-34 53 12 179 c6 99 10 203 9 233 -1 43
5 66 32 121 18 37 39 67 45 67 6 0 31 -7 55 -16 24 -8 98 -21 164 -28 l120
-13 118 45 117 45 64 86 64 86 14 129 14 129 -29 101 c-17 55 -34 102 -38 104
-4 2 -6 9 -3 16 3 8 -32 45 -81 88 -84 72 -91 77 -204 112 -65 20 -129 36
-142 35 -13 0 -79 -21 -147 -46z"/>
</g>
</svg>
